# xmcd CD database file
#
# Track frame offsets:
#	150
#	19747
#	36495
#	54957
#	75065
#	101367
#	122240
#	136990
#	150312
#	171022
#
# Disc length: 2526 seconds
#
# Revision: 1
# Processed by: cddbd v1.5.1PL2 Copyright (c) Steve Scherf et al.
# Submitted via: CDex 1.51
#
DISCID=6b09dc0a
DTITLE=Brothers Brooks - The Brothers Brooks
DYEAR=1994
DGENRE=Blues
TTITLE0=Leaving you this morning
TTITLE1=You ain't listening
TTITLE2=Stand still
TTITLE3=Primitive
TTITLE4=All I've got left is the blues
TTITLE5=Putting out the fire
TTITLE6=Straighten up and fly right
TTITLE7=Made from scratch
TTITLE8=Peaches are sweeter
TTITLE9=No cover charge
EXTD=YEAR: 1994
EXTT0=
EXTT1=
EXTT2=
EXTT3=
EXTT4=
EXTT5=
EXTT6=
EXTT7=
EXTT8=
EXTT9=
PLAYORDER=
